{"version":2,"width":100,"height":26,"timestamp":1689338580,"env":{"SHELL":"","TERM":"xterm"}}
[ 0.00000, "o", "" ]
[ 0.09661, "o", "\u001b[19491001\u001b[1;35m> \u001b[20210325\u001b[0m" ]
[ 0.99556, "o", "# U" ]
[ 1.04808, "o", "s" ]
[ 1.10072, "o", "e" ]
[ 1.15228, "o", " " ]
[ 1.20399, "o", "t" ]
[ 1.25607, "o", "h" ]
[ 1.30800, "o", "e" ]
[ 1.36088, "o", " " ]
[ 1.41327, "o", "`" ]
[ 1.46510, "o", "x" ]
[ 1.51742, "o", " " ]
[ 1.56951, "o", "f" ]
[ 1.62131, "o", "f" ]
[ 1.67316, "o", "m" ]
[ 1.72601, "o", "p" ]
[ 1.77793, "o", "e" ]
[ 1.83057, "o", "g" ]
[ 1.88253, "o", "`" ]
[ 1.93456, "o", " " ]
[ 1.98672, "o", "c" ]
[ 2.03876, "o", "o" ]
[ 2.09114, "o", "m" ]
[ 2.14336, "o", "m" ]
[ 2.19517, "o", "a" ]
[ 2.24694, "o", "n" ]
[ 2.29923, "o", "d" ]
[ 2.35138, "o", " " ]
[ 2.40324, "o", "f" ]
[ 2.45565, "o", "o" ]
[ 2.50753, "o", "r" ]
[ 2.56010, "o", "m" ]
[ 2.61180, "o", "a" ]
[ 2.66337, "o", "t" ]
[ 2.71515, "o", " " ]
[ 2.76705, "o", "t" ]
[ 2.81933, "o", "o" ]
[ 2.87121, "o", " " ]
[ 2.92345, "o", "q" ]
[ 2.97592, "o", "u" ]
[ 3.02772, "o", "i" ]
[ 3.07928, "o", "c" ]
[ 3.13208, "o", "k" ]
[ 3.18433, "o", "l" ]
[ 3.23672, "o", "y" ]
[ 3.28908, "o", " " ]
[ 3.34193, "o", "u" ]
[ 3.39427, "o", "s" ]
[ 3.44599, "o", "e" ]
[ 3.49791, "o", " " ]
[ 3.54964, "o", "t" ]
[ 3.60147, "o", "h" ]
[ 3.65332, "o", "e" ]
[ 3.70573, "o", " " ]
[ 3.75842, "o", "`" ]
[ 3.81024, "o", "f" ]
[ 3.86311, "o", "f" ]
[ 3.91495, "o", "m" ]
[ 3.96712, "o", "p" ]
[ 4.01888, "o", "e" ]
[ 4.07100, "o", "g" ]
[ 4.12319, "o", "`" ]
[ 4.17608, "o", " " ]
[ 4.22818, "o", "c" ]
[ 4.28013, "o", "o" ]
[ 4.33236, "o", "m \r" ]
[ 4.38409, "o", "m" ]
[ 4.43642, "o", "a" ]
[ 4.48816, "o", "n" ]
[ 4.54053, "o", "d" ]
[ 4.59264, "o", "\r\n\u001b[?2004l\r\u001b[?2004h\r\n\u001b[19491001\u001b[1;35m> \u001b[20210325\u001b[0m" ]
[ 6.09682, "o", "x" ]
[ 6.14855, "o", " " ]
[ 6.20048, "o", "f" ]
[ 6.25271, "o", "f" ]
[ 6.30446, "o", "m" ]
[ 6.35736, "o", "p" ]
[ 6.40973, "o", "e" ]
[ 6.46158, "o", "g" ]
[ 6.51342, "o", " " ]
[ 6.56544, "o", "-" ]
[ 6.61727, "o", "v" ]
[ 6.66930, "o", "e" ]
[ 6.72155, "o", "r" ]
[ 6.77467, "o", "s" ]
[ 6.82707, "o", "i" ]
[ 6.87879, "o", "o" ]
[ 6.93086, "o", "n" ]
[ 7.18509, "o", "\r\n\u001b[?2004l\r" ]
[ 7.27383, "o", "ffmpeg version 6.0-static https://johnvansickle.com/ffmpeg/  Copyright (c) 2000-2023 the FFmpeg developers\r\nbuilt with gcc 8 (Debian 8.3.0-6)\r\nconfiguration: --enable-gpl --enable-version3 --enable-static --disable-debug --disable-ffplay --disable-indev=sndio --disable-outdev=sndio --cc=gcc --enable-fontconfig --enable-frei0r --enable-gnutls --enable-gmp --enable-libgme --enable-gray --enable-libaom --enable-libfribidi --enable-libass --enable-libvmaf --enable-libfreetype --enable-libmp3lame --enable-libopencore-amrnb --enable-libopencore-amrwb --enable-libopenjpeg --enable-librubberband --enable-libsoxr --enable-libspeex --enable-libsrt --enable-libvorbis --enable-libopus --enable-libtheora --enable-libvidstab --enable-libvo-amrwbenc --enable-libvpx --enable-libwebp --enable-libx264 --enable-libx265 --enable-libxml2 --enable-libdav1d --enable-libxvid --enable-libzvbi --enable-libzimg\r\nlibavutil      58.  2.100 / 58.  2.100\r\nlibavcodec     60.  3.100 / 60.  3.100\r\nlibavformat    60.  3.100 / 60.  3.100\r\nlibavdevice    60.  1.100 / 60.  1.100\r\nlibavfilter     9.  3.100 /  9.  3.100\r\nlibswscale      7.  1.100 /  7.  1.100\r\nlibswresample   4. 10.100 /  4. 10.100\r\nlibpostproc    57.  1.100 / 57.  1.100\r\n" ]
[ 7.27446, "o", "\u001b[?2004h\r\n" ]
[ 7.27447, "o", "\u001b[19491001\u001b[1;35m> \u001b[20210325\u001b[0m" ]
[ 8.68908, "o", "# U" ]
[ 8.74092, "o", "s" ]
[ 8.79288, "o", "i" ]
[ 8.84478, "o", "n" ]
[ 8.89645, "o", "g" ]
[ 8.94882, "o", " " ]
[ 9.00048, "o", "`" ]
[ 9.05271, "o", "x" ]
[ 9.10535, "o", " " ]
[ 9.15773, "o", "e" ]
[ 9.21019, "o", "n" ]
[ 9.26233, "o", "v" ]
[ 9.31445, "o", " " ]
[ 9.36646, "o", "u" ]
[ 9.41849, "o", "s" ]
[ 9.47043, "o", "e" ]
[ 9.52248, "o", "`" ]
[ 9.57513, "o", " " ]
[ 9.62719, "o", "c" ]
[ 9.67889, "o", "a" ]
[ 9.73040, "o", "n" ]
[ 9.78245, "o", " " ]
[ 9.83516, "o", "a" ]
[ 9.88752, "o", "u" ]
[ 9.93979, "o", "t" ]
[ 9.99197, "o", "o" ]
[ 10.04365, "o", "m" ]
[ 10.09570, "o", "a" ]
[ 10.14792, "o", "t" ]
[ 10.19965, "o", "i" ]
[ 10.25189, "o", "c" ]
[ 10.30413, "o", "a" ]
[ 10.35728, "o", "l" ]
[ 10.40909, "o", "l" ]
[ 10.46147, "o", "y" ]
[ 10.51329, "o", " " ]
[ 10.56546, "o", "i" ]
[ 10.61771, "o", "n" ]
[ 10.66989, "o", "s" ]
[ 10.72182, "o", "t" ]
[ 10.77378, "o", "a" ]
[ 10.82583, "o", "l" ]
[ 10.87768, "o", "l" ]
[ 10.92962, "o", " " ]
[ 10.98129, "o", "a" ]
[ 11.03359, "o", "n" ]
[ 11.08601, "o", "d" ]
[ 11.13843, "o", " " ]
[ 11.19158, "o", "c" ]
[ 11.24344, "o", "o" ]
[ 11.29575, "o", "n" ]
[ 11.34734, "o", "f" ]
[ 11.39924, "o", "i" ]
[ 11.45099, "o", "g" ]
[ 11.50293, "o", "u" ]
[ 11.55529, "o", "r" ]
[ 11.60800, "o", "e" ]
[ 11.65985, "o", " " ]
[ 11.71145, "o", "c" ]
[ 11.76381, "o", "o" ]
[ 11.81581, "o", "r" ]
[ 11.86803, "o", "r" ]
[ 11.92048, "o", "e" ]
[ 11.97408, "o", "s" ]
[ 12.02604, "o", "p \r" ]
[ 12.07771, "o", "o" ]
[ 12.13007, "o", "n" ]
[ 12.18211, "o", "d" ]
[ 12.23438, "o", "i" ]
[ 12.28618, "o", "n" ]
[ 12.33849, "o", "g" ]
[ 12.39160, "o", " " ]
[ 12.44370, "o", "g" ]
[ 12.49552, "o", "l" ]
[ 12.54724, "o", "o" ]
[ 12.59958, "o", "b" ]
[ 12.65132, "o", "a" ]
[ 12.70354, "o", "l" ]
[ 12.75604, "o", " " ]
[ 12.80865, "o", "e" ]
[ 12.86077, "o", "n" ]
[ 12.91297, "o", "v" ]
[ 12.96533, "o", "i" ]
[ 13.01695, "o", "r" ]
[ 13.06924, "o", "o" ]
[ 13.12123, "o", "n" ]
[ 13.17386, "o", "m" ]
[ 13.22568, "o", "e" ]
[ 13.27788, "o", "n" ]
[ 13.33029, "o", "t" ]
[ 13.38279, "o", " " ]
[ 13.43512, "o", "v" ]
[ 13.48693, "o", "a" ]
[ 13.53978, "o", "r" ]
[ 13.59150, "o", "i" ]
[ 13.64378, "o", "a" ]
[ 13.69557, "o", "b" ]
[ 13.74821, "o", "l" ]
[ 13.80077, "o", "e" ]
[ 13.85273, "o", "s" ]
[ 13.90499, "o", "\r\n\u001b[?2004l\r\u001b[?2004h" ]
[ 13.90503, "o", "\r\n\u001b[19491001\u001b[1;35m> \u001b[20210325\u001b[0m" ]
[ 15.41005, "o", "x" ]
[ 15.46252, "o", " " ]
[ 15.51452, "o", "e" ]
[ 15.56683, "o", "n" ]
[ 15.61889, "o", "v" ]
[ 15.67104, "o", " " ]
[ 15.72351, "o", "u" ]
[ 15.77582, "o", "s" ]
[ 15.82768, "o", "e" ]
[ 15.88009, "o", " " ]
[ 15.93247, "o", "f" ]
[ 15.98417, "o", "f" ]
[ 16.03586, "o", "m" ]
[ 16.08763, "o", "p" ]
[ 16.14014, "o", "e" ]
[ 16.19220, "o", "g" ]
[ 16.44599, "o", "\r\n\u001b[?2004l\r" ]
[ 16.76677, "o", "- \u001b[32mI\u001b[0m\u001b[32m|pkg: \u001b[0mSuccessfully set link from path \u001b[0m\r\n" ]
[ 16.79277, "o", "- \u001b[32mI\u001b[0m\u001b[32m|env: \u001b[0mSuccessfully set ffmpeg=v6.0 in the current environment.\u001b[0m\r\n" ]
[ 16.85190, "o", "- \u001b[32mI\u001b[0m\u001b[32m|env: \u001b[0mConfig file updated to /root/.x-cmd.root/local/data/env/version\u001b[0m\r\n" ]
[ 16.85248, "o", "\u001b[?2004h\r\n\u001b[19491001\u001b[1;35m> \u001b[20210325\u001b[0m" ]
[ 19.95027, "o", "# C" ]
[ 20.00203, "o", "o" ]
[ 20.05465, "o", "n" ]
[ 20.10656, "o", "v" ]
[ 20.15834, "o", "e" ]
[ 20.21015, "o", "r" ]
[ 20.26281, "o", "t" ]
[ 20.31474, "o", " " ]
[ 20.36690, "o", "v" ]
[ 20.41922, "o", "i" ]
[ 20.47197, "o", "d" ]
[ 20.52419, "o", "e" ]
[ 20.57613, "o", "o" ]
[ 20.62800, "o", " " ]
[ 20.67977, "o", "f" ]
[ 20.73173, "o", "o" ]
[ 20.78365, "o", "r" ]
[ 20.83593, "o", "m" ]
[ 20.88867, "o", "a" ]
[ 20.94048, "o", "t" ]
[ 20.99227, "o", "s" ]
[ 21.04401, "o", "\r\n\u001b[?2004l\r" ]
[ 21.04408, "o", "\u001b[?2004h\r\n\u001b[19491001\u001b[1;35m> \u001b[20210325\u001b[0m" ]
[ 22.54835, "o", "f" ]
[ 22.60087, "o", "f" ]
[ 22.65310, "o", "m" ]
[ 22.70497, "o", "p" ]
[ 22.75666, "o", "e" ]
[ 22.80845, "o", "g" ]
[ 22.86057, "o", " " ]
[ 22.91233, "o", "-" ]
[ 22.96454, "o", "i" ]
[ 23.01655, "o", " " ]
[ 23.06846, "o", "t" ]
[ 23.12043, "o", "e" ]
[ 23.17226, "o", "s" ]
[ 23.22390, "o", "t" ]
[ 23.27559, "o", "." ]
[ 23.32799, "o", "m" ]
[ 23.37946, "o", "p" ]
[ 23.43142, "o", "4" ]
[ 23.48355, "o", " " ]
[ 23.53563, "o", "t" ]
[ 23.58801, "o", "e" ]
[ 23.63976, "o", "s" ]
[ 23.69270, "o", "t" ]
[ 23.74449, "o", "." ]
[ 23.79720, "o", "a" ]
[ 23.84920, "o", "v" ]
[ 23.90074, "o", "i" ]
[ 24.95493, "o", "\r\n\u001b[?2004l\r" ]
[ 24.95723, "o", "ffmpeg version 6.0-static https://johnvansickle.com/ffmpeg/  Copyright (c) 2000-2023 the FFmpeg developers\r\n  built with gcc 8 (Debian 8.3.0-6)\r\n  configuration: --enable-gpl --enable-version3 --enable-static --disable-debug --disable-ffplay --disable-indev=sndio --disable-outdev=sndio --cc=gcc --enable-fontconfig --enable-frei0r --enable-gnutls --enable-gmp --enable-libgme --enable-gray --enable-libaom --enable-libfribidi --enable-libass --enable-libvmaf --enable-libfreetype --enable-libmp3lame --enable-libopencore-amrnb --enable-libopencore-amrwb --enable-libopenjpeg --enable-librubberband --enable-libsoxr --enable-libspeex --enable-libsrt --enable-libvorbis --enable-libopus --enable-libtheora --enable-libvidstab --enable-libvo-amrwbenc --enable-libvpx --enable-libwebp --enable-libx264 --enable-libx265 --enable-libxml2 --enable-libdav1d --enable-libxvid --enable-libzvbi --enable-libzimg\r\n" ]
[ 24.95724, "o", "  libavutil      58.  2.100 / 58.  2.100\r\n  libavcodec     60.  3.100 / 60.  3.100\r\n  libavformat    60.  3.100 / 60.  3.100\r\n  libavdevice    60.  1.100 / 60.  1.100\r\n  libavfilter     9.  3.100 /  9.  3.100\r\n  libswscale      7.  1.100 /  7.  1.100\r\n" ]
[ 24.95728, "o", "  libswresample   4. 10.100 /  4. 10.100\r\n  libpostproc    57.  1.100 / 57.  1.100\r\n" ]
[ 24.96150, "o", "Input #0, mov,mp4,m4a,3gp,3g2,mj2, from 'test.mp4':\r\n  Metadata:\r\n    major_brand     : isom\r\n    minor_version   : 512\r\n    compatible_brands: isomiso2avc1mp41\r\n    creation_time   : 1970-01-01T00:00:00.000000Z\r\n    title           : Sintel Trailer\r\n    artist          : Durian Open Movie Team\r\n    encoder         : Lavf52.62.0\r\n    copyright       : (c) copyright Blender Foundation | durian.blender.org\r\n    description     : Trailer for the Sintel open movie project\r\n  Duration: 00:00:52.21, start: 0.000000, bitrate: 669 kb/s\r\n" ]
[ 24.96168, "o", "  Stream #0:0[0x1](und): Video: h264 (High) (avc1 / 0x31637661), yuv420p(progressive), 854x480, 537 kb/s, 24 fps, 24 tbr, 24 tbn (default)\r\n    Metadata:\r\n      creation_time   : 1970-01-01T00:00:00.000000Z\r\n      handler_name    : VideoHandler\r\n      vendor_id       : [0][0][0][0]\r\n  Stream #0:1[0x2](und): Audio: aac (LC) (mp4a / 0x6134706D), 48000 Hz, stereo, fltp, 126 kb/s (default)\r\n    Metadata:\r\n      creation_time   : 1970-01-01T00:00:00.000000Z\r\n      handler_name    : SoundHandler\r\n      vendor_id       : [0][0][0][0]\r\n" ]
[ 24.96476, "o", "Stream mapping:\r\n  Stream #0:0 -> #0:0 (h264 (native) -> mpeg4 (native))\r\n  Stream #0:1 -> #0:1 (aac (native) -> mp3 (libmp3lame))\r\nPress [q] to stop, [?] for help\r\n" ]
[ 24.97883, "o", "Output #0, avi, to 'test.avi':\r\n  Metadata:\r\n    major_brand     : isom\r\n    minor_version   : 512\r\n    compatible_brands: isomiso2avc1mp41\r\n    description     : Trailer for the Sintel open movie project\r\n    INAM            : Sintel Trailer\r\n    IART            : Durian Open Movie Team\r\n    ICOP            : " ]
[ 24.97885, "o", "(c) copyright Blender Foundation | durian.blender.org\r\n    ISFT            : Lavf60.3.100" ]
[ 24.97886, "o", "\r\n" ]
[ 24.97901, "o", "  Stream #0:0(und): Video: mpeg4 (FMP4 / 0x34504D46), yuv420p(progressive), 854x480, q=2-31, 200 kb/s, 24 fps, 24 tbn (default)\r\n    Metadata:\r\n      creation_time   : 1970-01-01T00:00:00.000000Z\r\n      handler_name    : VideoHandler\r\n      vendor_id       : [0][0][0][0]\r\n      encoder         : Lavc60.3.100 mpeg4\r\n    Side data:\r\n      cpb: bitrate max/min/avg: 0/0/200000 buffer size: 0 vbv_delay: N/A\r\n  Stream #0:1(und): Audio: mp3 (U[0][0][0] / 0x0055), 48000 Hz, stereo, fltp (default)\r\n    Metadata:\r\n      creation_time   : 1970-01-01T00:00:00.000000Z\r\n      handler_name    : SoundHandler\r\n      vendor_id       : [0][0][0][0]\r\n      encoder         : Lavc60.3.100 libmp3lame\r\n" ]
[ 24.98261, "o", "frame=    0 fps=0.0 q=1.6 size=      10kB time=00:00:00.23 bitrate= 337.0kbits/s speed=25.9x    \r" ]
[ 25.47517, "o", "frame=  289 fps=0.0 q=31.0 size=     768kB time=00:00:12.23 bitrate= 514.1kbits/s speed=  24x    \r" ]
[ 25.97589, "o", "frame=  575 fps=569 q=31.0 size=    1280kB time=00:00:24.14 bitrate= 434.3kbits/s speed=23.9x    \r" ]
[ 26.47613, "o", "frame=  852 fps=564 q=31.0 size=    2304kB time=00:00:35.68 bitrate= 528.9kbits/s speed=23.6x    \r" ]
[ 26.97666, "o", "frame= 1129 fps=561 q=31.0 size=    2816kB time=00:00:47.25 bitrate= 488.2kbits/s speed=23.5x    \r" ]
[ 27.14782, "o", "frame= 1253 fps=574 q=31.0 Lsize=    3239kB time=00:00:52.16 bitrate= 508.7kbits/s speed=23.9x    \r\nvideo:2337kB audio:812kB subtitle:0kB other streams:0kB global headers:0kB muxing overhead: 2.878306%\r\n" ]
[ 27.15264, "o", "\u001b[?2004h\r\n\u001b[19491001\u001b[1;35m> \u001b[20210325\u001b[0m" ]
[ 31.45924, "o", "# E" ]
[ 31.51136, "o", "x" ]
[ 31.56308, "o", "t" ]
[ 31.61513, "o", "r" ]
[ 31.66678, "o", "a" ]
[ 31.71948, "o", "c" ]
[ 31.77133, "o", "t" ]
[ 31.82351, "o", " " ]
[ 31.87566, "o", "a" ]
[ 31.92741, "o", "u" ]
[ 31.97948, "o", "d" ]
[ 32.03128, "o", "i" ]
[ 32.08329, "o", "o" ]
[ 32.13500, "o", " " ]
[ 32.18741, "o", "f" ]
[ 32.23927, "o", "r" ]
[ 32.29133, "o", "o" ]
[ 32.34350, "o", "m" ]
[ 32.39580, "o", " " ]
[ 32.44794, "o", "v" ]
[ 32.49949, "o", "i" ]
[ 32.55153, "o", "d" ]
[ 32.60297, "o", "e" ]
[ 32.65457, "o", "o" ]
[ 32.70638, "o", "\r\n\u001b[?2004l\r\u001b[?2004h\r\n\u001b[19491001\u001b[1;35m> \u001b[20210325\u001b[0m" ]
[ 34.20995, "o", "f" ]
[ 34.26153, "o", "f" ]
[ 34.31390, "o", "m" ]
[ 34.36572, "o", "p" ]
[ 34.41791, "o", "e" ]
[ 34.47041, "o", "g" ]
[ 34.52205, "o", " " ]
[ 34.57435, "o", "-" ]
[ 34.62611, "o", "i" ]
[ 34.67815, "o", " " ]
[ 34.72991, "o", "t" ]
[ 34.78219, "o", "e" ]
[ 34.83421, "o", "s" ]
[ 34.88645, "o", "t" ]
[ 34.93879, "o", "." ]
[ 34.99070, "o", "m" ]
[ 35.04243, "o", "p" ]
[ 35.09441, "o", "4" ]
[ 35.14619, "o", " " ]
[ 35.19794, "o", "-" ]
[ 35.25006, "o", "a" ]
[ 35.30246, "o", "c" ]
[ 35.35478, "o", "o" ]
[ 35.40724, "o", "d" ]
[ 35.45907, "o", "e" ]
[ 35.51143, "o", "c" ]
[ 35.56324, "o", " " ]
[ 35.61549, "o", "l" ]
[ 35.66813, "o", "i" ]
[ 35.72057, "o", "b" ]
[ 35.77269, "o", "m" ]
[ 35.82478, "o", "p" ]
[ 35.87642, "o", "3" ]
[ 35.92822, "o", "l" ]
[ 35.98034, "o", "a" ]
[ 36.03212, "o", "m" ]
[ 36.08450, "o", "e" ]
[ 36.13694, "o", " " ]
[ 36.18898, "o", "-" ]
[ 36.24128, "o", "v" ]
[ 36.29312, "o", "n" ]
[ 36.34501, "o", " " ]
[ 36.39680, "o", "t" ]
[ 36.44867, "o", "e" ]
[ 36.50096, "o", "s" ]
[ 36.55296, "o", "t" ]
[ 36.60538, "o", "." ]
[ 36.65778, "o", "m" ]
[ 36.71004, "o", "p" ]
[ 36.76179, "o", "3" ]
[ 38.31582, "o", "\r\n\u001b[?2004l\r" ]
[ 38.31877, "o", "ffmpeg version 6.0-static https://johnvansickle.com/ffmpeg/  Copyright (c) 2000-2023 the FFmpeg developers\r\n  built with gcc 8 (Debian 8.3.0-6)\r\n  configuration: --enable-gpl --enable-version3 --enable-static --disable-debug --disable-ffplay --disable-indev=sndio --disable-outdev=sndio --cc=gcc --enable-fontconfig --enable-frei0r --enable-gnutls --enable-gmp --enable-libgme --enable-gray --enable-libaom --enable-libfribidi --enable-libass --enable-libvmaf --enable-libfreetype --enable-libmp3lame --enable-libopencore-amrnb --enable-libopencore-amrwb --enable-libopenjpeg --enable-librubberband --enable-libsoxr --enable-libspeex --enable-libsrt --enable-libvorbis --enable-libopus --enable-libtheora --enable-libvidstab --enable-libvo-amrwbenc --enable-libvpx --enable-libwebp --enable-libx264 --enable-libx265 --enable-libxml2 --enable-libdav1d --enable-libxvid --enable-libzvbi --enable-libzimg\r\n  libavutil      58.  2.100 / 58.  2.100\r\n  libavcodec     60.  3.100 / 60.  3.100\r\n  libavformat    60.  3.100 / 60.  3.100\r\n  libavdevice    60.  1.100 / 60.  1.100\r\n  libavfilter     9.  3.100 /  9.  3.100\r\n  libswscale      7.  1.100 /  7.  1.100\r\n  libswresample   4. 10.100 /  4. 10.100\r\n  libpostproc    57.  1.100 / 57.  1.100\r\n" ]
[ 38.32312, "o", "Input #0, mov,mp4,m4a,3gp,3g2,mj2, from 'test.mp4':\r\n  Metadata:\r\n    major_brand     : isom\r\n    minor_version   : 512\r\n    compatible_brands: isomiso2avc1mp41\r\n    creation_time   : 1970-01-01T00:00:00.000000Z\r\n    title           : Sintel Trailer\r\n    artist          : Durian Open Movie Team\r\n    encoder         : Lavf52.62.0\r\n    copyright       : (c) copyright Blender Foundation | durian.blender.org\r\n    description     : Trailer for the Sintel open movie project\r\n  Duration: 00:00:52.21, start: 0.000000, bitrate: 669 kb/s\r\n  Stream #0:0[0x1](und): Video: h264 (High) (avc1 / 0x31637661), yuv420p(progressive), 854x480, 537 kb/s, 24 fps, 24 tbr, 24 tbn (default)\r\n    Metadata:\r\n      creation_time   : 1970-01-01T00:00:00.000000Z\r\n      handler_name    : VideoHandler\r\n      vendor_id       : [0][0][0][0]\r\n" ]
[ 38.32313, "o", "  Stream #0:1[0x2](und): Audio: aac (LC) (mp4a / 0x6134706D), 48000 Hz, stereo, fltp, 126 kb/s (default)\r\n    Metadata:\r\n      creation_time   : 1970-01-01T00:00:00.000000Z\r\n      handler_name    : SoundHandler\r\n      vendor_id       : [0][0][0][0]\r\n" ]
[ 38.32379, "o", "Stream mapping:\r\n  Stream #0:1 -> #0:0 (aac (native) -> mp3 (libmp3lame))\r\nPress [q] to stop, [?] for help\r\n" ]
[ 38.32703, "o", "Output #0, mp3, to 'test.mp3':\r\n  Metadata:\r\n    major_brand     : isom\r\n    minor_version   : 512\r\n    compatible_brands: isomiso2avc1mp41\r\n    description     : Trailer for the Sintel open movie project\r\n    TIT2            : Sintel Trailer\r\n    TPE1            : Durian Open Movie Team\r\n    TCOP            : (c) copyright Blender Foundation | durian.blender.org" ]
[ 38.32707, "o", "\r\n    TSSE            : Lavf60.3.100\r\n" ]
[ 38.32715, "o", "  Stream #0:0(und): Audio: mp3, 48000 Hz, stereo, fltp (default)\r\n    Metadata:\r\n      creation_time   : 1970-01-01T00:00:00.000000Z\r\n      handler_name    : SoundHandler\r\n      vendor_id       : [0][0][0][0]\r\n      encoder         : Lavc60.3.100 libmp3lame\r\n" ]
[ 38.32726, "o", "size=       0kB time=-577014:32:22.77 bitrate=  -0.0kbits/s speed=N/A    \r" ]
[ 38.82539, "o", "size=     256kB time=00:00:24.23 bitrate=  86.5kbits/s speed=48.4x    \r" ]
[ 39.32536, "o", "size=     512kB time=00:00:47.87 bitrate=  87.6kbits/s speed=47.8x    \r" ]
[ 39.39105, "o", "size=     812kB time=00:00:51.93 bitrate= 128.1kbits/s speed=48.7x    \r\nvideo:0kB audio:812kB subtitle:0kB other streams:0kB global headers:0kB muxing overhead: 0.063631%\r\n" ]
[ 39.39230, "o", "\u001b[?2004h\r\n\u001b[19491001\u001b[1;35m> \u001b[20210325\u001b[0m" ]
[ 44.82034, "o", "# V" ]
[ 44.87215, "o", "i" ]
[ 44.92403, "o", "e" ]
[ 44.97603, "o", "w" ]
[ 45.02779, "o", " " ]
[ 45.07963, "o", "a" ]
[ 45.13127, "o", "u" ]
[ 45.18405, "o", "d" ]
[ 45.23593, "o", "i" ]
[ 45.28801, "o", "o" ]
[ 45.34015, "o", " " ]
[ 45.39209, "o", "f" ]
[ 45.44406, "o", "i" ]
[ 45.49586, "o", "l" ]
[ 45.54800, "o", "e" ]
[ 45.60001, "o", " " ]
[ 45.65237, "o", "i" ]
[ 45.70442, "o", "n" ]
[ 45.75653, "o", "f" ]
[ 45.80889, "o", "o" ]
[ 45.86086, "o", "r" ]
[ 45.91293, "o", "m" ]
[ 45.96466, "o", "a" ]
[ 46.01692, "o", "t" ]
[ 46.06885, "o", "i" ]
[ 46.12115, "o", "o" ]
[ 46.17363, "o", "n" ]
[ 46.22543, "o", "\r\n\u001b[?2004l\r" ]
[ 46.22545, "o", "\u001b[?2004h\r\n\u001b[19491001\u001b[1;35m> \u001b[20210325\u001b[0m" ]
[ 47.72885, "o", "f" ]
[ 47.78068, "o", "f" ]
[ 47.83362, "o", "m" ]
[ 47.88620, "o", "p" ]
[ 47.93860, "o", "e" ]
[ 47.99056, "o", "g" ]
[ 48.04246, "o", " " ]
[ 48.09416, "o", "-" ]
[ 48.14621, "o", "i" ]
[ 48.19801, "o", " " ]
[ 48.24983, "o", "t" ]
[ 48.30155, "o", "e" ]
[ 48.35382, "o", "s" ]
[ 48.40562, "o", "t" ]
[ 48.45770, "o", "." ]
[ 48.50983, "o", "m" ]
[ 48.56174, "o", "p" ]
[ 48.61361, "o", "3" ]
[ 48.66572, "o", " " ]
[ 48.71816, "o", "-" ]
[ 48.77060, "o", "h" ]
[ 48.82257, "o", "i" ]
[ 48.87473, "o", "d" ]
[ 48.92685, "o", "e" ]
[ 48.97881, "o", "_" ]
[ 49.03065, "o", "b" ]
[ 49.08269, "o", "a" ]
[ 49.13458, "o", "n" ]
[ 49.18724, "o", "n" ]
[ 49.23957, "o", "e" ]
[ 49.29186, "o", "r" ]
[ 50.84613, "o", "\r\n\u001b[?2004l\r" ]
[ 50.85004, "o", "Input #0, mp3, from 'test.mp3':\r\n  Metadata:\r\n    major_brand     : isom\r\n    minor_version   : 512\r\n    compatible_brands: isomiso2avc1mp41\r\n    description     : Trailer for the Sintel open movie project\r\n    title           : Sintel Trailer\r\n    artist          : Durian Open Movie Team\r\n    copyright       : (c) copyright Blender Foundation | durian.blender.org\r\n    encoder         : Lavf60.3.100\r\n  Duration: 00:00:51.96, start: 0.023021, bitrate: 128 kb/s\r\n  Stream #0:0: Audio: mp3, 48000 Hz, stereo, fltp, 128 kb/s\r\n    Metadata:\r\n      encoder         : Lavc60.3.\r\n" ]
[ 50.85005, "o", "\u001b[4;31mAt least one output file must be specified\r\n\u001b[0m" ]
[ 50.85065, "o", "\u001b[?2004h\r\n\u001b[19491001\u001b[1;35m> \u001b[20210325\u001b[0m" ]
[ 58.90299, "o", "\u001b[?2004l\r\r\nexit\r\n" ]
